<?xml version="1.0" encoding="UTF-8" standalone="no"?>
<!DOCTYPE svg PUBLIC "-//W3C//DTD SVG 1.1//EN" "http://www.w3.org/Graphics/SVG/1.1/DTD/svg11.dtd">
<svg width="100%" height="100%" viewBox="0 0 1500 300" version="1.1" xmlns="http://www.w3.org/2000/svg" xmlns:xlink="http://www.w3.org/1999/xlink" xml:space="preserve" xmlns:serif="http://www.serif.com/" style="fill-rule:evenodd;clip-rule:evenodd;stroke-linejoin:round;stroke-miterlimit:2;">
    <g transform="matrix(0.5,0,0,0.5,-87.5,-43.75)">
        <path d="M375,537.5C347.386,537.5 325,515.114 325,487.5L325,437.5C325,409.886 347.386,387.5 375,387.5L425,387.5L425,287.5L375,287.5C292.157,287.5 225,354.657 225,437.5L225,487.5C225,570.343 292.157,637.5 375,637.5L575,637.5L575,537.5L375,537.5Z" style="fill:rgb(41,171,226);fill-rule:nonzero;"/>
        <path d="M575,537.5C547.386,537.5 525,515.114 525,487.5L525,137.5L425,137.5L425,487.5C425,570.343 492.157,637.5 575,637.5L575,637.5L575,537.5L575,537.5Z" style="fill:rgb(0,113,188);fill-rule:nonzero;"/>
    </g>
    <g transform="matrix(1,0,0,1,25,-2.84217e-14)">
        <g transform="matrix(160,0,0,160,225,206)">
            <path d="M0.301,0.008C0.248,0.008 0.201,-0.001 0.161,-0.018C0.121,-0.035 0.09,-0.059 0.069,-0.091C0.047,-0.122 0.036,-0.159 0.036,-0.201L0.036,-0.223C0.036,-0.226 0.037,-0.229 0.04,-0.232C0.042,-0.234 0.045,-0.235 0.048,-0.235L0.162,-0.235C0.165,-0.235 0.168,-0.234 0.171,-0.232C0.173,-0.229 0.174,-0.226 0.174,-0.223L0.174,-0.208C0.174,-0.181 0.186,-0.159 0.211,-0.141C0.236,-0.122 0.269,-0.113 0.311,-0.113C0.346,-0.113 0.373,-0.121 0.39,-0.136C0.407,-0.151 0.416,-0.169 0.416,-0.191C0.416,-0.207 0.411,-0.221 0.4,-0.232C0.389,-0.243 0.375,-0.252 0.357,-0.261C0.338,-0.269 0.309,-0.28 0.269,-0.295C0.224,-0.31 0.187,-0.326 0.156,-0.342C0.125,-0.358 0.099,-0.38 0.078,-0.407C0.057,-0.435 0.046,-0.469 0.046,-0.51C0.046,-0.55 0.056,-0.585 0.077,-0.615C0.098,-0.645 0.126,-0.668 0.163,-0.684C0.2,-0.7 0.242,-0.708 0.29,-0.708C0.341,-0.708 0.386,-0.699 0.426,-0.681C0.465,-0.663 0.496,-0.638 0.519,-0.606C0.541,-0.573 0.552,-0.536 0.552,-0.493L0.552,-0.478C0.552,-0.475 0.551,-0.472 0.549,-0.469C0.546,-0.467 0.543,-0.466 0.54,-0.466L0.425,-0.466C0.422,-0.466 0.419,-0.467 0.417,-0.469C0.414,-0.472 0.413,-0.475 0.413,-0.478L0.413,-0.486C0.413,-0.514 0.402,-0.538 0.379,-0.558C0.356,-0.577 0.324,-0.587 0.284,-0.587C0.253,-0.587 0.228,-0.58 0.211,-0.567C0.193,-0.554 0.184,-0.535 0.184,-0.512C0.184,-0.495 0.189,-0.481 0.2,-0.47C0.21,-0.459 0.225,-0.449 0.246,-0.44C0.266,-0.431 0.297,-0.418 0.34,-0.403C0.387,-0.386 0.425,-0.37 0.452,-0.357C0.478,-0.344 0.503,-0.324 0.525,-0.298C0.546,-0.271 0.557,-0.237 0.557,-0.195C0.557,-0.132 0.534,-0.083 0.488,-0.047C0.442,-0.01 0.38,0.008 0.301,0.008Z" style="fill:white;fill-rule:nonzero;"/>
        </g>
        <g transform="matrix(160,0,0,160,320.2,206)">
            <path d="M0.622,-0.522C0.674,-0.522 0.715,-0.506 0.744,-0.475C0.773,-0.444 0.788,-0.4 0.788,-0.343L0.788,-0.012C0.788,-0.009 0.787,-0.006 0.785,-0.004C0.782,-0.001 0.779,-0 0.776,-0L0.659,-0C0.656,-0 0.653,-0.001 0.651,-0.004C0.648,-0.006 0.647,-0.009 0.647,-0.012L0.647,-0.312C0.647,-0.339 0.64,-0.361 0.626,-0.377C0.612,-0.393 0.593,-0.401 0.57,-0.401C0.547,-0.401 0.528,-0.393 0.513,-0.377C0.498,-0.361 0.491,-0.34 0.491,-0.313L0.491,-0.012C0.491,-0.009 0.49,-0.006 0.488,-0.004C0.485,-0.001 0.482,-0 0.479,-0L0.363,-0C0.36,-0 0.357,-0.001 0.355,-0.004C0.352,-0.006 0.351,-0.009 0.351,-0.012L0.351,-0.312C0.351,-0.339 0.344,-0.36 0.329,-0.377C0.314,-0.393 0.295,-0.401 0.272,-0.401C0.251,-0.401 0.233,-0.395 0.219,-0.382C0.204,-0.369 0.196,-0.352 0.193,-0.329L0.193,-0.012C0.193,-0.009 0.192,-0.006 0.19,-0.004C0.187,-0.001 0.184,-0 0.181,-0L0.064,-0C0.061,-0 0.058,-0.001 0.056,-0.004C0.053,-0.006 0.052,-0.009 0.052,-0.012L0.052,-0.502C0.052,-0.505 0.053,-0.508 0.056,-0.51C0.058,-0.513 0.061,-0.514 0.064,-0.514L0.181,-0.514C0.184,-0.514 0.187,-0.513 0.19,-0.51C0.192,-0.508 0.193,-0.505 0.193,-0.502L0.193,-0.463C0.193,-0.461 0.194,-0.46 0.195,-0.459C0.196,-0.458 0.198,-0.459 0.199,-0.461C0.226,-0.502 0.269,-0.522 0.326,-0.522C0.359,-0.522 0.389,-0.515 0.413,-0.501C0.439,-0.487 0.458,-0.467 0.471,-0.441C0.473,-0.437 0.475,-0.437 0.478,-0.441C0.493,-0.468 0.513,-0.489 0.538,-0.502C0.563,-0.515 0.591,-0.522 0.622,-0.522Z" style="fill:white;fill-rule:nonzero;"/>
        </g>
        <g transform="matrix(160,0,0,160,453.32,206)">
            <path d="M0.279,0.008C0.223,0.008 0.175,-0.007 0.135,-0.036C0.095,-0.065 0.068,-0.105 0.053,-0.156C0.044,-0.187 0.039,-0.221 0.039,-0.258C0.039,-0.297 0.044,-0.333 0.053,-0.364C0.068,-0.413 0.096,-0.452 0.136,-0.48C0.176,-0.508 0.224,-0.522 0.28,-0.522C0.335,-0.522 0.381,-0.508 0.42,-0.481C0.459,-0.453 0.486,-0.414 0.502,-0.365C0.513,-0.332 0.518,-0.297 0.518,-0.26C0.518,-0.224 0.513,-0.19 0.504,-0.159C0.489,-0.107 0.462,-0.066 0.423,-0.037C0.383,-0.007 0.335,0.008 0.279,0.008ZM0.279,-0.113C0.301,-0.113 0.32,-0.12 0.335,-0.133C0.35,-0.146 0.361,-0.165 0.368,-0.188C0.373,-0.209 0.376,-0.233 0.376,-0.258C0.376,-0.286 0.373,-0.31 0.368,-0.329C0.361,-0.352 0.349,-0.369 0.334,-0.382C0.319,-0.395 0.3,-0.401 0.278,-0.401C0.255,-0.401 0.236,-0.395 0.222,-0.382C0.206,-0.369 0.196,-0.352 0.189,-0.329C0.184,-0.313 0.181,-0.289 0.181,-0.258C0.181,-0.228 0.183,-0.205 0.188,-0.188C0.195,-0.165 0.206,-0.146 0.222,-0.133C0.237,-0.12 0.256,-0.113 0.279,-0.113Z" style="fill:white;fill-rule:nonzero;"/>
        </g>
        <g transform="matrix(160,0,0,160,542.44,206)">
            <path d="M0.279,0.008C0.223,0.008 0.175,-0.007 0.135,-0.036C0.095,-0.065 0.068,-0.105 0.053,-0.156C0.044,-0.187 0.039,-0.221 0.039,-0.258C0.039,-0.297 0.044,-0.333 0.053,-0.364C0.068,-0.413 0.096,-0.452 0.136,-0.48C0.176,-0.508 0.224,-0.522 0.28,-0.522C0.335,-0.522 0.381,-0.508 0.42,-0.481C0.459,-0.453 0.486,-0.414 0.502,-0.365C0.513,-0.332 0.518,-0.297 0.518,-0.26C0.518,-0.224 0.513,-0.19 0.504,-0.159C0.489,-0.107 0.462,-0.066 0.423,-0.037C0.383,-0.007 0.335,0.008 0.279,0.008ZM0.279,-0.113C0.301,-0.113 0.32,-0.12 0.335,-0.133C0.35,-0.146 0.361,-0.165 0.368,-0.188C0.373,-0.209 0.376,-0.233 0.376,-0.258C0.376,-0.286 0.373,-0.31 0.368,-0.329C0.361,-0.352 0.349,-0.369 0.334,-0.382C0.319,-0.395 0.3,-0.401 0.278,-0.401C0.255,-0.401 0.236,-0.395 0.222,-0.382C0.206,-0.369 0.196,-0.352 0.189,-0.329C0.184,-0.313 0.181,-0.289 0.181,-0.258C0.181,-0.228 0.183,-0.205 0.188,-0.188C0.195,-0.165 0.206,-0.146 0.222,-0.133C0.237,-0.12 0.256,-0.113 0.279,-0.113Z" style="fill:white;fill-rule:nonzero;"/>
        </g>
        <g transform="matrix(160,0,0,160,629.32,206)">
            <path d="M0.347,-0.413C0.347,-0.41 0.346,-0.407 0.344,-0.405C0.341,-0.402 0.338,-0.401 0.335,-0.401L0.239,-0.401C0.236,-0.401 0.234,-0.399 0.234,-0.396L0.234,-0.184C0.234,-0.162 0.238,-0.146 0.248,-0.135C0.257,-0.124 0.271,-0.119 0.291,-0.119L0.324,-0.119C0.327,-0.119 0.33,-0.118 0.333,-0.116C0.335,-0.113 0.336,-0.11 0.336,-0.107L0.336,-0.012C0.336,-0.005 0.332,-0 0.324,0.001C0.296,0.002 0.276,0.003 0.264,0.003C0.209,0.003 0.167,-0.006 0.14,-0.025C0.113,-0.043 0.099,-0.077 0.098,-0.128L0.098,-0.396C0.098,-0.399 0.096,-0.401 0.093,-0.401L0.036,-0.401C0.033,-0.401 0.03,-0.402 0.028,-0.405C0.025,-0.407 0.024,-0.41 0.024,-0.413L0.024,-0.502C0.024,-0.505 0.025,-0.508 0.028,-0.51C0.03,-0.513 0.033,-0.514 0.036,-0.514L0.093,-0.514C0.096,-0.514 0.098,-0.516 0.098,-0.519L0.098,-0.638C0.098,-0.641 0.099,-0.644 0.102,-0.647C0.104,-0.649 0.107,-0.65 0.11,-0.65L0.222,-0.65C0.225,-0.65 0.228,-0.649 0.231,-0.647C0.233,-0.644 0.234,-0.641 0.234,-0.638L0.234,-0.519C0.234,-0.516 0.236,-0.514 0.239,-0.514L0.335,-0.514C0.338,-0.514 0.341,-0.513 0.344,-0.51C0.346,-0.508 0.347,-0.505 0.347,-0.502L0.347,-0.413Z" style="fill:white;fill-rule:nonzero;"/>
        </g>
        <g transform="matrix(160,0,0,160,690.12,206)">
            <path d="M0.32,-0.522C0.373,-0.522 0.416,-0.506 0.449,-0.473C0.482,-0.44 0.498,-0.396 0.498,-0.34L0.498,-0.012C0.498,-0.009 0.497,-0.006 0.495,-0.004C0.492,-0.001 0.489,-0 0.486,-0L0.369,-0C0.366,-0 0.363,-0.001 0.361,-0.004C0.358,-0.006 0.357,-0.009 0.357,-0.012L0.357,-0.311C0.357,-0.338 0.349,-0.359 0.335,-0.376C0.32,-0.393 0.3,-0.401 0.275,-0.401C0.25,-0.401 0.231,-0.393 0.216,-0.376C0.201,-0.359 0.193,-0.338 0.193,-0.311L0.193,-0.012C0.193,-0.009 0.192,-0.006 0.19,-0.004C0.187,-0.001 0.184,-0 0.181,-0L0.064,-0C0.061,-0 0.058,-0.001 0.056,-0.004C0.053,-0.006 0.052,-0.009 0.052,-0.012L0.052,-0.688C0.052,-0.691 0.053,-0.694 0.056,-0.697C0.058,-0.699 0.061,-0.7 0.064,-0.7L0.181,-0.7C0.184,-0.7 0.187,-0.699 0.19,-0.697C0.192,-0.694 0.193,-0.691 0.193,-0.688L0.193,-0.467C0.193,-0.465 0.194,-0.464 0.195,-0.463C0.196,-0.462 0.197,-0.463 0.198,-0.464C0.225,-0.503 0.266,-0.522 0.32,-0.522Z" style="fill:white;fill-rule:nonzero;"/>
        </g>
        <g transform="matrix(160,0,0,160,809.64,206)">
            <path d="M0.547,-0.591C0.547,-0.588 0.546,-0.585 0.544,-0.583C0.541,-0.58 0.538,-0.579 0.535,-0.579L0.207,-0.579C0.204,-0.579 0.202,-0.577 0.202,-0.574L0.202,-0.419C0.202,-0.416 0.204,-0.414 0.207,-0.414L0.422,-0.414C0.425,-0.414 0.428,-0.413 0.431,-0.41C0.433,-0.408 0.434,-0.405 0.434,-0.402L0.434,-0.305C0.434,-0.302 0.433,-0.299 0.431,-0.297C0.428,-0.294 0.425,-0.293 0.422,-0.293L0.207,-0.293C0.204,-0.293 0.202,-0.291 0.202,-0.288L0.202,-0.126C0.202,-0.123 0.204,-0.121 0.207,-0.121L0.535,-0.121C0.538,-0.121 0.541,-0.12 0.544,-0.117C0.546,-0.115 0.547,-0.112 0.547,-0.109L0.547,-0.012C0.547,-0.009 0.546,-0.006 0.544,-0.004C0.541,-0.001 0.538,-0 0.535,-0L0.073,-0C0.07,-0 0.067,-0.001 0.065,-0.004C0.062,-0.006 0.061,-0.009 0.061,-0.012L0.061,-0.688C0.061,-0.691 0.062,-0.694 0.065,-0.697C0.067,-0.699 0.07,-0.7 0.073,-0.7L0.535,-0.7C0.538,-0.7 0.541,-0.699 0.544,-0.697C0.546,-0.694 0.547,-0.691 0.547,-0.688L0.547,-0.591Z" style="fill:white;fill-rule:nonzero;"/>
        </g>
        <g transform="matrix(160,0,0,160,903.08,206)">
            <path d="M0.32,-0.522C0.373,-0.522 0.416,-0.506 0.449,-0.473C0.482,-0.44 0.498,-0.396 0.498,-0.34L0.498,-0.012C0.498,-0.009 0.497,-0.006 0.495,-0.004C0.492,-0.001 0.489,-0 0.486,-0L0.369,-0C0.366,-0 0.363,-0.001 0.361,-0.004C0.358,-0.006 0.357,-0.009 0.357,-0.012L0.357,-0.311C0.357,-0.338 0.349,-0.359 0.335,-0.376C0.32,-0.393 0.3,-0.401 0.275,-0.401C0.25,-0.401 0.231,-0.393 0.216,-0.376C0.201,-0.359 0.193,-0.338 0.193,-0.311L0.193,-0.012C0.193,-0.009 0.192,-0.006 0.19,-0.004C0.187,-0.001 0.184,-0 0.181,-0L0.064,-0C0.061,-0 0.058,-0.001 0.056,-0.004C0.053,-0.006 0.052,-0.009 0.052,-0.012L0.052,-0.502C0.052,-0.505 0.053,-0.508 0.056,-0.51C0.058,-0.513 0.061,-0.514 0.064,-0.514L0.181,-0.514C0.184,-0.514 0.187,-0.513 0.19,-0.51C0.192,-0.508 0.193,-0.505 0.193,-0.502L0.193,-0.467C0.193,-0.465 0.194,-0.464 0.195,-0.463C0.196,-0.462 0.197,-0.463 0.198,-0.464C0.225,-0.503 0.266,-0.522 0.32,-0.522Z" style="fill:white;fill-rule:nonzero;"/>
        </g>
        <g transform="matrix(160,0,0,160,987.08,206)">
            <path d="M0.195,-0C0.188,-0 0.184,-0.003 0.182,-0.01L0.022,-0.501C0.021,-0.502 0.021,-0.504 0.021,-0.506C0.021,-0.512 0.025,-0.515 0.032,-0.515L0.161,-0.515C0.168,-0.515 0.173,-0.512 0.175,-0.505L0.257,-0.202C0.258,-0.2 0.259,-0.199 0.26,-0.199C0.261,-0.199 0.262,-0.2 0.263,-0.202L0.345,-0.505C0.347,-0.512 0.352,-0.515 0.359,-0.515L0.488,-0.513C0.492,-0.513 0.495,-0.512 0.497,-0.509C0.499,-0.507 0.499,-0.504 0.498,-0.499L0.339,-0.01C0.337,-0.003 0.333,-0 0.326,-0L0.195,-0Z" style="fill:white;fill-rule:nonzero;"/>
        </g>
        <g transform="matrix(160,0,0,160,1065,206)">
            <path d="M0.507,-0.31C0.511,-0.285 0.512,-0.256 0.511,-0.225C0.51,-0.217 0.506,-0.213 0.498,-0.213L0.189,-0.213C0.185,-0.213 0.184,-0.211 0.185,-0.208C0.187,-0.195 0.191,-0.181 0.196,-0.168C0.213,-0.131 0.249,-0.112 0.302,-0.112C0.345,-0.113 0.378,-0.13 0.403,-0.164C0.406,-0.168 0.409,-0.17 0.412,-0.17C0.414,-0.17 0.416,-0.169 0.419,-0.166L0.491,-0.095C0.494,-0.092 0.496,-0.089 0.496,-0.086C0.496,-0.085 0.495,-0.082 0.492,-0.078C0.47,-0.051 0.442,-0.029 0.407,-0.015C0.372,0 0.334,0.008 0.293,0.008C0.236,0.008 0.187,-0.005 0.148,-0.031C0.108,-0.057 0.079,-0.093 0.062,-0.14C0.048,-0.173 0.041,-0.217 0.041,-0.271C0.041,-0.308 0.046,-0.34 0.056,-0.368C0.071,-0.415 0.098,-0.453 0.137,-0.481C0.175,-0.509 0.22,-0.523 0.273,-0.523C0.34,-0.523 0.393,-0.504 0.434,-0.465C0.474,-0.426 0.498,-0.375 0.507,-0.31ZM0.274,-0.401C0.232,-0.401 0.204,-0.381 0.191,-0.342C0.188,-0.333 0.186,-0.323 0.184,-0.31C0.184,-0.307 0.186,-0.305 0.189,-0.305L0.362,-0.305C0.366,-0.305 0.367,-0.307 0.366,-0.31C0.363,-0.329 0.361,-0.339 0.361,-0.338C0.355,-0.358 0.344,-0.374 0.33,-0.385C0.315,-0.396 0.296,-0.401 0.274,-0.401Z" style="fill:white;fill-rule:nonzero;"/>
        </g>
        <g transform="matrix(160,0,0,160,1152.36,206)">
            <path d="M0.064,-0C0.061,-0 0.058,-0.001 0.056,-0.004C0.053,-0.006 0.052,-0.009 0.052,-0.012L0.052,-0.688C0.052,-0.691 0.053,-0.694 0.056,-0.697C0.058,-0.699 0.061,-0.7 0.064,-0.7L0.181,-0.7C0.184,-0.7 0.187,-0.699 0.19,-0.697C0.192,-0.694 0.193,-0.691 0.193,-0.688L0.193,-0.012C0.193,-0.009 0.192,-0.006 0.19,-0.004C0.187,-0.001 0.184,-0 0.181,-0L0.064,-0Z" style="fill:white;fill-rule:nonzero;"/>
        </g>
        <g transform="matrix(160,0,0,160,1191.4,206)">
            <path d="M0.279,0.008C0.223,0.008 0.175,-0.007 0.135,-0.036C0.095,-0.065 0.068,-0.105 0.053,-0.156C0.044,-0.187 0.039,-0.221 0.039,-0.258C0.039,-0.297 0.044,-0.333 0.053,-0.364C0.068,-0.413 0.096,-0.452 0.136,-0.48C0.176,-0.508 0.224,-0.522 0.28,-0.522C0.335,-0.522 0.381,-0.508 0.42,-0.481C0.459,-0.453 0.486,-0.414 0.502,-0.365C0.513,-0.332 0.518,-0.297 0.518,-0.26C0.518,-0.224 0.513,-0.19 0.504,-0.159C0.489,-0.107 0.462,-0.066 0.423,-0.037C0.383,-0.007 0.335,0.008 0.279,0.008ZM0.279,-0.113C0.301,-0.113 0.32,-0.12 0.335,-0.133C0.35,-0.146 0.361,-0.165 0.368,-0.188C0.373,-0.209 0.376,-0.233 0.376,-0.258C0.376,-0.286 0.373,-0.31 0.368,-0.329C0.361,-0.352 0.349,-0.369 0.334,-0.382C0.319,-0.395 0.3,-0.401 0.278,-0.401C0.255,-0.401 0.236,-0.395 0.222,-0.382C0.206,-0.369 0.196,-0.352 0.189,-0.329C0.184,-0.313 0.181,-0.289 0.181,-0.258C0.181,-0.228 0.183,-0.205 0.188,-0.188C0.195,-0.165 0.206,-0.146 0.222,-0.133C0.237,-0.12 0.256,-0.113 0.279,-0.113Z" style="fill:white;fill-rule:nonzero;"/>
        </g>
        <g transform="matrix(160,0,0,160,1280.52,206)">
            <path d="M0.511,-0.376C0.523,-0.342 0.529,-0.302 0.529,-0.256C0.529,-0.21 0.523,-0.168 0.51,-0.131C0.495,-0.088 0.47,-0.055 0.438,-0.029C0.405,-0.005 0.364,0.008 0.315,0.008C0.267,0.008 0.23,-0.009 0.203,-0.042C0.202,-0.044 0.2,-0.045 0.199,-0.044C0.198,-0.043 0.197,-0.042 0.197,-0.04L0.197,0.174C0.197,0.177 0.196,0.18 0.194,0.182C0.191,0.185 0.188,0.186 0.185,0.186L0.068,0.186C0.065,0.186 0.062,0.185 0.059,0.182C0.057,0.18 0.056,0.177 0.056,0.174L0.056,-0.502C0.056,-0.505 0.057,-0.508 0.059,-0.51C0.062,-0.513 0.065,-0.514 0.068,-0.514L0.185,-0.514C0.188,-0.514 0.191,-0.513 0.194,-0.51C0.196,-0.508 0.197,-0.505 0.197,-0.502L0.197,-0.469C0.197,-0.467 0.198,-0.466 0.199,-0.466C0.2,-0.465 0.202,-0.466 0.203,-0.467C0.231,-0.504 0.27,-0.522 0.319,-0.522C0.365,-0.522 0.405,-0.509 0.439,-0.484C0.472,-0.458 0.496,-0.422 0.511,-0.376ZM0.358,-0.152C0.375,-0.178 0.383,-0.213 0.383,-0.258C0.383,-0.3 0.376,-0.333 0.362,-0.358C0.347,-0.387 0.322,-0.401 0.288,-0.401C0.257,-0.401 0.234,-0.387 0.219,-0.358C0.205,-0.334 0.198,-0.3 0.198,-0.257C0.198,-0.212 0.205,-0.178 0.22,-0.153C0.235,-0.126 0.258,-0.113 0.288,-0.113C0.318,-0.113 0.341,-0.126 0.358,-0.152Z" style="fill:white;fill-rule:nonzero;"/>
        </g>
        <g transform="matrix(160,0,0,160,1370.92,206)">
            <path d="M0.507,-0.31C0.511,-0.285 0.512,-0.256 0.511,-0.225C0.51,-0.217 0.506,-0.213 0.498,-0.213L0.189,-0.213C0.185,-0.213 0.184,-0.211 0.185,-0.208C0.187,-0.195 0.191,-0.181 0.196,-0.168C0.213,-0.131 0.249,-0.112 0.302,-0.112C0.345,-0.113 0.378,-0.13 0.403,-0.164C0.406,-0.168 0.409,-0.17 0.412,-0.17C0.414,-0.17 0.416,-0.169 0.419,-0.166L0.491,-0.095C0.494,-0.092 0.496,-0.089 0.496,-0.086C0.496,-0.085 0.495,-0.082 0.492,-0.078C0.47,-0.051 0.442,-0.029 0.407,-0.015C0.372,0 0.334,0.008 0.293,0.008C0.236,0.008 0.187,-0.005 0.148,-0.031C0.108,-0.057 0.079,-0.093 0.062,-0.14C0.048,-0.173 0.041,-0.217 0.041,-0.271C0.041,-0.308 0.046,-0.34 0.056,-0.368C0.071,-0.415 0.098,-0.453 0.137,-0.481C0.175,-0.509 0.22,-0.523 0.273,-0.523C0.34,-0.523 0.393,-0.504 0.434,-0.465C0.474,-0.426 0.498,-0.375 0.507,-0.31ZM0.274,-0.401C0.232,-0.401 0.204,-0.381 0.191,-0.342C0.188,-0.333 0.186,-0.323 0.184,-0.31C0.184,-0.307 0.186,-0.305 0.189,-0.305L0.362,-0.305C0.366,-0.305 0.367,-0.307 0.366,-0.31C0.363,-0.329 0.361,-0.339 0.361,-0.338C0.355,-0.358 0.344,-0.374 0.33,-0.385C0.315,-0.396 0.296,-0.401 0.274,-0.401Z" style="fill:white;fill-rule:nonzero;"/>
        </g>
    </g>
</svg>
